<svg width="155" height="33" viewBox="0 0 155 33" fill="none" xmlns="http://www.w3.org/2000/svg">
<path d="M136.224 32.575C134.84 32.575 133.751 32.1025 132.957 31.1575C132.163 30.1989 131.766 28.8704 131.766 27.1721C131.766 25.7067 132.067 24.1865 132.67 22.6115C133.272 21.0229 134.087 19.4958 135.114 18.0304C136.155 16.5513 137.326 15.2228 138.627 14.045C139.942 12.8672 141.305 11.929 142.715 11.2306C144.126 10.5321 145.502 10.1829 146.844 10.1829C147.598 10.1829 148.228 10.3335 148.734 10.6348C149.241 10.9224 149.734 11.4086 150.213 12.0934L150.871 10.5937H155L148.036 27.7063C147.666 28.6102 147.515 29.247 147.584 29.6168C147.652 29.9729 147.878 30.1509 148.262 30.1509C148.536 30.1509 148.878 30.0277 149.289 29.7811C149.7 29.5209 150.193 29.1238 150.768 28.5896C151.357 28.0555 152.028 27.3707 152.781 26.5353L153.583 27.1105C152.172 28.8909 150.816 30.2468 149.515 31.1781C148.214 32.1094 147.002 32.575 145.879 32.575C144.276 32.575 143.475 31.7875 143.475 30.2125C143.475 29.6099 143.564 28.9868 143.742 28.3431C143.934 27.6994 144.304 26.9462 144.852 26.0834L144.605 25.9395C143.03 28.2678 141.585 29.9592 140.271 31.0137C138.956 32.0546 137.607 32.575 136.224 32.575ZM137.004 31.1165C137.703 31.1165 138.518 30.7467 139.449 30.0071C140.394 29.2676 141.387 28.2472 142.428 26.9462C143.482 25.6451 144.509 24.1454 145.509 22.4472C146.523 20.7489 147.44 18.9343 148.262 17.0032C148.659 16.0719 148.906 15.3598 149.001 14.8667C149.097 14.36 149.145 13.9149 149.145 13.5314C149.145 12.8877 148.967 12.3878 148.611 12.0318C148.255 11.6757 147.81 11.4976 147.276 11.4976C146.468 11.4976 145.543 11.9016 144.502 12.7097C143.475 13.504 142.434 14.5586 141.38 15.8733C140.325 17.1744 139.353 18.5988 138.463 20.1463C137.573 21.6939 136.854 23.221 136.306 24.7275C135.758 26.234 135.484 27.5762 135.484 28.754C135.484 29.5757 135.6 30.1783 135.833 30.5618C136.066 30.9316 136.456 31.1165 137.004 31.1165Z" fill="#EF6A3F"/>
<path d="M117.973 32.575C116.233 32.575 114.925 32.0409 114.049 30.9727C113.172 29.9044 112.734 28.3568 112.734 26.3299C112.734 24.8371 113.001 23.3442 113.535 21.8514C114.069 20.3586 114.843 18.9274 115.857 17.5579C116.87 16.1746 118.089 14.9284 119.513 13.819C120.979 12.6823 122.506 11.7921 124.095 11.1484C125.697 10.5047 127.176 10.1829 128.532 10.1829C129.943 10.1829 131.114 10.5526 132.045 11.2922C132.976 12.0181 133.442 12.8877 133.442 13.9012C133.442 14.3805 133.277 14.7709 132.949 15.0722C132.62 15.3598 132.189 15.5036 131.654 15.5036C130.6 15.5036 129.977 14.8599 129.785 13.5725C129.662 12.8056 129.463 12.2577 129.189 11.929C128.929 11.6003 128.546 11.436 128.039 11.436C127.066 11.436 126.053 11.8058 124.998 12.5453C123.944 13.2849 122.924 14.271 121.938 15.5036C120.965 16.7225 120.089 18.0715 119.308 19.5506C118.527 21.016 117.904 22.4951 117.439 23.9879C116.973 25.4807 116.74 26.8571 116.74 28.1171C116.74 29.1306 116.918 29.8839 117.274 30.3769C117.644 30.8699 118.267 31.1165 119.144 31.1165C120.28 31.1165 121.581 30.6645 123.047 29.7606C124.526 28.8567 126.149 27.5008 127.916 25.693L128.82 26.2066C127.039 28.2883 125.231 29.8702 123.396 30.9521C121.575 32.0341 119.767 32.575 117.973 32.575Z" fill="#EF6A3F"/>
<path d="M102.905 32.575C102.111 32.575 101.467 32.3833 100.974 31.9998C100.495 31.6163 100.255 31.0411 100.255 30.2742C100.255 29.9318 100.296 29.5415 100.378 29.1032C100.474 28.6513 100.639 28.1651 100.871 27.6446L107.466 13.1411C107.548 12.963 107.603 12.8192 107.63 12.7097C107.658 12.5864 107.671 12.4769 107.671 12.381C107.671 12.1345 107.5 12.0112 107.158 12.0112C106.678 12.0112 106.11 12.2372 105.453 12.6891C104.809 13.1411 104.179 13.7574 103.563 14.538L102.638 13.819C103.569 12.6823 104.638 11.7921 105.843 11.1484C107.062 10.5047 108.212 10.1829 109.294 10.1829C110.047 10.1829 110.671 10.3541 111.164 10.6964C111.67 11.0388 111.924 11.5319 111.924 12.1756C111.924 12.559 111.869 12.9836 111.759 13.4492C111.663 13.9149 111.506 14.3874 111.287 14.8667L104.754 28.8361C104.699 28.932 104.665 29.0279 104.651 29.1238C104.638 29.2059 104.631 29.2881 104.631 29.3703C104.631 29.8907 104.898 30.1509 105.432 30.1509C105.816 30.1509 106.288 29.9386 106.85 29.5141C107.411 29.0758 108.356 28.1993 109.684 26.8845L110.527 27.3981C109.253 29.0005 107.918 30.2673 106.521 31.1986C105.124 32.1162 103.919 32.575 102.905 32.575ZM111.842 5.49899C111.061 5.49899 110.445 5.29356 109.993 4.88269C109.541 4.45813 109.315 3.89662 109.315 3.19815C109.315 2.44489 109.616 1.79435 110.219 1.24653C110.821 0.698715 111.506 0.424805 112.273 0.424805C112.971 0.424805 113.581 0.637085 114.101 1.06164C114.635 1.48621 114.902 2.02033 114.902 2.66402C114.902 3.14336 114.752 3.60216 114.451 4.04042C114.163 4.46498 113.786 4.81422 113.321 5.08813C112.855 5.36204 112.362 5.49899 111.842 5.49899Z" fill="#EF6A3F"/>
<path d="M80.4187 32.1436L88.2662 14.0039C88.3758 13.7163 88.4785 13.4424 88.5744 13.1822C88.6702 12.922 88.7182 12.696 88.7182 12.5043C88.7182 12.1756 88.5333 12.0112 88.1635 12.0112C87.8622 12.0112 87.4719 12.1619 86.9925 12.4632C86.5132 12.7508 85.9928 13.1548 85.4313 13.6752C84.8834 14.182 84.3356 14.7777 83.7878 15.4625L83.0277 14.8256C84.1096 13.4424 85.3148 12.3262 86.6433 11.4771C87.9718 10.6143 89.1907 10.1829 90.3 10.1829C90.8615 10.1829 91.3135 10.3609 91.6559 10.717C92.012 11.0594 92.19 11.573 92.19 12.2577C92.19 12.8056 92.0736 13.3876 91.8408 14.0039C91.6079 14.6202 91.1491 15.4967 90.4644 16.6334L90.6492 16.6951C92.0599 14.3942 93.3952 12.7371 94.6552 11.7236C95.9289 10.6964 97.2299 10.1829 98.5584 10.1829C99.4349 10.1829 100.161 10.3883 100.736 10.7992C101.311 11.21 101.599 11.7647 101.599 12.4632C101.599 13.011 101.441 13.4561 101.126 13.7985C100.825 14.1272 100.387 14.2915 99.8115 14.2915C99.2911 14.2915 98.9008 14.1683 98.6406 13.9217C98.3804 13.6752 98.127 13.4355 97.8805 13.2027C97.634 12.9562 97.2573 12.8329 96.7506 12.8329C96.1754 12.8329 95.5728 13.0726 94.9428 13.552C94.3265 14.0313 93.6691 14.7503 92.9706 15.709C92.2722 16.654 91.5189 17.8455 90.7109 19.2835C89.9165 20.7079 89.0606 22.3719 88.143 24.2755L84.363 32.1436H80.4187Z" fill="#EF6A3F"/>
<path d="M66.746 32.575C65.0614 32.575 63.7535 32.0957 62.8222 31.137C61.9046 30.1646 61.4458 28.8019 61.4458 27.0489C61.4458 25.5561 61.7676 24.0222 62.4113 22.4472C63.0687 20.8722 63.9521 19.3589 65.0614 17.9071C66.1708 16.4417 67.4239 15.1269 68.8208 13.9628C70.2178 12.7987 71.6695 11.8811 73.176 11.21C74.6962 10.5252 76.1753 10.1829 77.6134 10.1829C78.8186 10.1829 79.7704 10.4294 80.4689 10.9224C81.1673 11.4155 81.5166 12.1002 81.5166 12.9767C81.5166 14.1135 80.9277 15.2228 79.7498 16.3048C78.5857 17.3867 76.9628 18.3591 74.8811 19.2219C72.8131 20.071 70.4232 20.7353 67.7115 21.2146C66.9309 22.6526 66.3488 23.9811 65.9653 25.2C65.5818 26.4052 65.3901 27.4734 65.3901 28.4047C65.3901 30.2125 66.1776 31.1165 67.7526 31.1165C68.588 31.1165 69.4988 30.8905 70.4848 30.4385C71.4846 29.9729 72.4707 29.336 73.4431 28.528C74.4291 27.7063 75.3194 26.7613 76.1137 25.693L76.997 26.2477C75.3399 28.3431 73.6416 29.9249 71.9023 30.9932C70.1767 32.0477 68.4579 32.575 66.746 32.575ZM68.6154 19.8382C70.2999 19.5095 71.8749 18.9617 73.3403 18.1947C74.8195 17.4141 76.011 16.5307 76.9149 15.5447C77.8325 14.5586 78.2913 13.5999 78.2913 12.6686C78.2913 11.8469 77.8462 11.436 76.956 11.436C76.2301 11.436 75.4358 11.7031 74.573 12.2372C73.7101 12.7576 72.8679 13.4698 72.0461 14.3737C71.2244 15.2776 70.5054 16.3116 69.8891 17.4757L68.6154 19.8382Z" fill="#EF6A3F"/>
<path d="M50.065 32.575C49.2433 32.575 48.6749 32.3696 48.3599 31.9587C48.0586 31.5342 47.908 30.8768 47.908 29.9866C47.908 29.6031 47.9696 29.1443 48.0929 28.6102C48.2161 28.0624 48.4763 27.2612 48.8735 26.2066C49.2844 25.1521 49.8938 23.6798 50.7019 21.7898L54.9338 11.9085H51.6058L52.0372 10.5937H55.5501C56.4129 9.82678 57.1456 9.08722 57.7482 8.37505C58.3508 7.64919 58.8028 6.93702 59.1041 6.23855C58.6384 6.4029 58.1454 6.52616 57.625 6.60833C57.1045 6.6905 56.5635 6.73159 56.002 6.73159C55.016 6.73159 54.1394 6.62202 53.3725 6.4029C52.6055 6.17007 51.8934 5.90986 51.236 5.62225C50.5786 5.32095 49.9212 5.06074 49.2638 4.84161C48.6065 4.60878 47.8806 4.49237 47.0863 4.49237C45.9632 4.49237 45.0936 4.73889 44.4773 5.23193C43.8747 5.71127 43.5734 6.40974 43.5734 7.32734C43.5734 8.03951 43.7788 8.6695 44.1896 9.21732C44.6005 9.76514 45.3401 10.4157 46.4083 11.1689L45.3812 11.662C44.0527 10.8129 43.0392 9.87471 42.3408 8.84755C41.656 7.82038 41.3136 6.74528 41.3136 5.62225C41.3136 4.45813 41.6765 3.54738 42.4024 2.89C43.1282 2.23261 44.1212 1.90392 45.3812 1.90392C46.3946 1.90392 47.3602 2.08881 48.2778 2.45859C49.1954 2.81467 50.0924 3.23239 50.9689 3.71173C51.8454 4.17738 52.7425 4.59509 53.6601 4.96487C54.5777 5.32095 55.5432 5.49899 56.5567 5.49899C57.0771 5.49899 57.5907 5.44421 58.0974 5.33465C58.6179 5.22508 59.0767 5.06758 59.4738 4.86215C59.5012 4.77998 59.5149 4.6978 59.5149 4.61563C59.5149 4.53346 59.5149 4.45128 59.5149 4.36911V2.82837C59.5149 2.04772 59.6656 1.45197 59.9669 1.0411C60.2819 0.630238 60.727 0.424805 61.3022 0.424805C61.7404 0.424805 62.0828 0.568607 62.3294 0.856211C62.5759 1.13012 62.6991 1.50675 62.6991 1.98609C62.6991 2.38326 62.6238 2.78043 62.4732 3.1776C62.3362 3.57477 62.1171 3.97194 61.8158 4.36911L59.6382 10.5937H63.2538L62.8429 11.9085H59.1041L55.7761 19.756C54.8995 21.7967 54.2079 23.4196 53.7012 24.6248C53.1945 25.8163 52.8178 26.7133 52.5713 27.3159C52.3248 27.9185 52.1604 28.3431 52.0783 28.5896C52.0098 28.8361 51.9755 29.0347 51.9755 29.1854C51.9755 29.8291 52.27 30.1509 52.8589 30.1509C53.2698 30.1509 53.8039 29.8976 54.4613 29.3908C55.1187 28.8704 55.9883 28.035 57.0703 26.8845L57.9126 27.3981C56.5978 29.0416 55.2556 30.3153 53.8861 31.2192C52.5165 32.1231 51.2428 32.575 50.065 32.575ZM36.3832 32.575C35.0547 32.575 33.8975 32.397 32.9114 32.0409C31.9253 31.6711 31.1584 31.1849 30.6105 30.5823C30.0627 29.9797 29.7888 29.3086 29.7888 28.5691C29.7888 28.0897 29.96 27.6789 30.3024 27.3365C30.6448 26.9804 31.0899 26.8024 31.6377 26.8024C32.3499 26.8024 32.8292 27.0078 33.0757 27.4187C33.3223 27.8295 33.5277 28.2952 33.692 28.8156C33.8701 29.4045 34.1303 29.966 34.4727 30.5002C34.8151 31.0343 35.5272 31.3013 36.6092 31.3013C37.7459 31.3013 38.6567 30.9384 39.3414 30.2125C40.0399 29.473 40.3891 28.5348 40.3891 27.3981C40.3891 27.0009 40.3138 26.5969 40.1632 26.1861C40.0125 25.7615 39.766 25.2753 39.4236 24.7275C39.0949 24.166 38.6361 23.4949 38.0472 22.7143C36.9653 21.2488 36.1983 20.0368 35.7464 19.0781C35.3081 18.1057 35.089 17.1744 35.089 16.2842C35.089 15.1612 35.4245 14.1409 36.0956 13.2233C36.7804 12.292 37.6911 11.5524 38.8279 11.0046C39.9646 10.4568 41.2246 10.1829 42.6078 10.1829C43.7445 10.1829 44.7854 10.3609 45.7304 10.717C46.6891 11.0594 47.4492 11.5182 48.0107 12.0934C48.5859 12.6549 48.8735 13.2643 48.8735 13.9217C48.8735 14.4148 48.6955 14.8188 48.3394 15.1338C47.997 15.4488 47.5587 15.6063 47.0246 15.6063C45.9838 15.6063 45.3812 15.0105 45.2168 13.819C45.0799 12.8192 44.8607 12.1619 44.5594 11.8469C44.2718 11.5319 43.7035 11.3744 42.8543 11.3744C41.6491 11.3744 40.7384 11.7031 40.1221 12.3604C39.5058 13.0178 39.1976 13.9012 39.1976 15.0105C39.1976 15.709 39.3757 16.4486 39.7318 17.2292C40.0878 17.9961 40.7247 19.0302 41.6423 20.3312C42.6421 21.7419 43.3337 22.8854 43.7172 23.762C44.1143 24.6385 44.3129 25.4944 44.3129 26.3299C44.3129 27.5351 43.9637 28.6102 43.2652 29.5552C42.5667 30.4865 41.6149 31.226 40.4097 31.7738C39.2182 32.308 37.876 32.575 36.3832 32.575Z" fill="#EF6A3F"/>
<path d="M0 32.1436L0.390323 31.2192L4.14974 30.4385L15.6951 2.54075L12.5109 1.76011L12.9423 0.856201H32.4584L32.7871 9.79252H31.6777C31.4175 8.3408 31.1025 7.01234 30.7327 5.80713C30.3766 4.58823 29.8973 3.47205 29.2947 2.45858H20.1324L15.0788 14.8256H21.9197C22.5908 14.045 23.2071 13.2712 23.7686 12.5042C24.3438 11.7236 24.8642 10.9498 25.3299 10.1828H26.5214L21.9197 21.3378H20.7487C20.9541 20.5161 21.1048 19.7012 21.2007 18.8932C21.2965 18.0715 21.3719 17.2634 21.4266 16.4691H14.3597L8.58709 30.5412H21.7142C22.8099 29.2402 23.8165 27.9459 24.7341 26.6585C25.6654 25.3575 26.5077 24.0632 27.2609 22.7759H28.4524L24.7546 32.1436H0Z" fill="#EF6A3F"/>
</svg>
